<?xml version="1.0" encoding="UTF-8"?>
<svg version="1.1" xmlns="http://www.w3.org/2000/svg" width="240" height="64">
<path d="M0 0 C3.125 -0.1875 3.125 -0.1875 6 0 C8.20932445 4.29590866 8.20932445 4.29590866 7.3125 7.3125 C6.6628125 8.6428125 6.6628125 8.6428125 6 10 C5.44657801 11.4330154 4.90547301 12.87083173 4.375 14.3125 C3.92125 15.529375 3.4675 16.74625 3 18 C6.465 17.505 6.465 17.505 10 17 C10.33 16.01 10.66 15.02 11 14 C11.99 13.67 12.98 13.34 14 13 C14.33 11.35 14.66 9.7 15 8 C17.38355811 7.93379005 19.5327732 7.87974331 21.8515625 8.4765625 C25.11481869 9.27161037 28.41409154 9.38792626 31.7578125 9.62109375 C34 10 34 10 36 12 C35.625 14.625 35.625 14.625 35 17 C36.32 17.33 37.64 17.66 39 18 C39 18.66 39 19.32 39 20 C39.99 20 40.98 20 42 20 C41.7215625 18.824375 41.7215625 18.824375 41.4375 17.625 C41 15 41 15 42 13 C41.34 13 40.68 13 40 13 C40 12.01 40 11.02 40 10 C42.475 10.495 42.475 10.495 45 11 C45.495 12.485 45.495 12.485 46 14 C47.19625 13.79375 48.3925 13.5875 49.625 13.375 C53.65409516 12.87488504 56.17507636 13.54652902 60 15 C64.95 15.99 64.95 15.99 70 17 C70 25.91 70 34.82 70 44 C65 41 65 41 64 40 C61.81360547 39.92741054 59.62499611 39.91626217 57.4375 39.9375 C56.23996094 39.94652344 55.04242188 39.95554688 53.80859375 39.96484375 C52.41833984 39.98224609 52.41833984 39.98224609 51 40 C50.67 39.01 50.34 38.02 50 37 C51.65 36.01 53.3 35.02 55 34 C54.01016366 31.30044635 53.45793615 30.21549936 50.80859375 28.96875 C42.63626987 26.1499234 34.63902396 24.5607276 26 25 C25.67 24.01 25.34 23.02 25 22 C24.01 21.67 23.02 21.34 22 21 C21.3125 18.9375 21.3125 18.9375 21 17 C19.35 16.67 17.7 16.34 16 16 C15.34 16.99 14.68 17.98 14 19 C15.32 19.66 16.64 20.32 18 21 C17.67 21.99 17.34 22.98 17 24 C11.72 24 6.44 24 1 24 C0.67 22.35 0.34 20.7 0 19 C-0.721875 18.113125 -1.44375 17.22625 -2.1875 16.3125 C-4.52465088 12.04115529 -3.85956733 9.86089827 -2.7734375 5.26953125 C-2 3 -2 3 0 0 Z " fill="#61B150" transform="translate(170,15)"/>
<path d="M0 0 C4.23998354 -0.39259107 7.36733941 -0.32490278 11 2 C10.67 3.65 10.34 5.3 10 7 C10.66 7 11.32 7 12 7 C12.1546875 7.928125 12.1546875 7.928125 12.3125 8.875 C12.87525373 11.36526484 12.87525373 11.36526484 16 13 C15.67 13.99 15.34 14.98 15 16 C14.2575 16.04125 13.515 16.0825 12.75 16.125 C8.9176007 17.34439978 8.05734223 19.66568673 6 23 C5.34 23 4.68 23 4 23 C3.67 25.97 3.34 28.94 3 32 C-0.11408883 33.03802961 -2.72146912 33.74286032 -6 34 C-6.928125 33.525625 -7.85625 33.05125 -8.8125 32.5625 C-12.5113421 30.74934211 -14.86377194 30.81514549 -18.890625 30.95703125 C-21.38799481 31.0079036 -23.58535071 30.62090982 -26 30 C-26.763125 29.814375 -27.52625 29.62875 -28.3125 29.4375 C-28.869375 29.293125 -29.42625 29.14875 -30 29 C-30.33 27.02 -30.66 25.04 -31 23 C-32.32 22.67 -33.64 22.34 -35 22 C-35.2226746 20.56465159 -35.42761906 19.12654475 -35.625 17.6875 C-35.74101563 16.88699219 -35.85703125 16.08648438 -35.9765625 15.26171875 C-36 13 -36 13 -34 10 C-33.278125 10.144375 -32.55625 10.28875 -31.8125 10.4375 C-30.4203125 10.7159375 -30.4203125 10.7159375 -29 11 C-28.26136719 11.18175781 -27.52273437 11.36351562 -26.76171875 11.55078125 C-23.41659015 12.09489693 -20.38104616 11.96860212 -17 11.75 C-15.80375 11.68296875 -14.6075 11.6159375 -13.375 11.546875 C-9.84353265 10.97464649 -7.85356494 10.11832208 -5 8 C-3.28288757 5.55503957 -3.28288757 5.55503957 -2 3 C-1.34 2.01 -0.68 1.02 0 0 Z " fill="#D81E7E" transform="translate(108,7)"/>
<path d="M0 0 C11.89480531 0.19412887 11.89480531 0.19412887 16 3.1875 C16.63035156 3.85072266 16.63035156 3.85072266 17.2734375 4.52734375 C21.77660971 8.36828475 28.58642608 11.20083554 34.3359375 12.546875 C34.88507812 12.69640625 35.43421875 12.8459375 36 13 C36.495 13.99 36.495 13.99 37 15 C38.97888961 15.72693904 40.97954558 16.39816251 43 17 C43 17.66 43 18.32 43 19 C43.99 19.33 44.98 19.66 46 20 C46 21.32 46 22.64 46 24 C46.66 24 47.32 24 48 24 C48 23.34 48 22.68 48 22 C49.65 21.67 51.3 21.34 53 21 C53 21.99 53 22.98 53 24 C52.01 24 51.02 24 50 24 C50.495 26.475 50.495 26.475 51 29 C51.66 29 52.32 29 53 29 C53 28.34 53 27.68 53 27 C54.75 26.25 54.75 26.25 57 26 C59.25 27.8125 59.25 27.8125 61 30 C61 30.66 61 31.32 61 32 C61.99 32.495 61.99 32.495 63 33 C60.525 33.495 60.525 33.495 58 34 C57.67 36.31 57.34 38.62 57 41 C55.73637508 41.55827609 54.4637081 42.09612097 53.1875 42.625 C52.47980469 42.92664062 51.77210937 43.22828125 51.04296875 43.5390625 C50.36878906 43.69117188 49.69460937 43.84328125 49 44 C48.01 43.34 47.02 42.68 46 42 C46 41.34 46 40.68 46 40 C45.05125 39.814375 44.1025 39.62875 43.125 39.4375 C37.25777161 37.74066409 31.22530851 34.06528411 27.61328125 29.08984375 C26.71079352 27.40971838 25.85291329 25.70582657 25 24 C23.10211697 21.96663749 23.10211697 21.96663749 21 21 C20.01 21.33 19.02 21.66 18 22 C18.33 20.35 18.66 18.7 19 17 C18.175 16.54625 17.35 16.0925 16.5 15.625 C15.675 15.08875 14.85 14.5525 14 14 C14 13.34 14 12.68 14 12 C11.89861678 10.94690406 9.79571671 9.90215002 7.67578125 8.88671875 C6.89589844 8.49097656 6.11601563 8.09523438 5.3125 7.6875 C4.52488281 7.29949219 3.73726563 6.91148438 2.92578125 6.51171875 C1 5 1 5 0.23046875 2.33203125 C0.15441406 1.56246094 0.07835937 0.79289063 0 0 Z " fill="#294194" transform="translate(0,3)"/>
<path d="M0 0 C0.99 0.66 1.98 1.32 3 2 C5.18336668 2.2786158 5.18336668 2.2786158 7.5 2.1875 C8.66015625 2.17783203 8.66015625 2.17783203 9.84375 2.16796875 C12.18348849 2.0730565 12.18348849 2.0730565 15 1 C15.70125 1.144375 16.4025 1.28875 17.125 1.4375 C21.09200711 2.21365357 24.9709291 2.07900139 29 2 C29.495 3.98 29.495 3.98 30 6 C32.64 6.33 35.28 6.66 38 7 C38 7.66 38 8.32 38 9 C42.95894861 8.31117524 42.95894861 8.31117524 47.875 7.375 C51.23671378 6.97159435 54.0243268 7.30154875 57.359375 7.73828125 C63.05562585 8.30285049 69.57819236 8.90047569 75.15234375 7.43359375 C78.29387023 6.69636449 81.01013748 8.02254494 84 9 C84 8.34 84 7.68 84 7 C85.32 7 86.64 7 88 7 C88.23388439 9.85338956 88.41994081 12.20407827 88 15 C84.24845865 18.75154135 79.05716985 18.68048382 74 19 C74 18.34 74 17.68 74 17 C75.62626404 15.61767557 77.2925002 14.28062485 79 13 C75.58860997 11.90348177 72.79344419 12.05784527 69.25 12.4375 C68.26515625 12.53933594 67.2803125 12.64117187 66.265625 12.74609375 C65.51796875 12.82988281 64.7703125 12.91367187 64 13 C64.99 14.98 64.99 14.98 66 17 C62.69564916 18.12377697 60.9493138 17.89554742 57.75 16.5625 C56.69039062 16.13130859 56.69039062 16.13130859 55.609375 15.69140625 C54.81273438 15.34916016 54.81273438 15.34916016 54 15 C54 14.01 54 13.02 54 12 C53.484375 12.165 52.96875 12.33 52.4375 12.5 C48.66866918 13.2730935 44.81163402 13.47578267 41.06640625 12.4921875 C38.77314153 11.94596566 36.7902183 11.93630543 34.4375 12 C31.49552941 12.07937863 29.85325528 11.95108509 27 11 C25.06491853 10.84191468 23.12652909 10.72347548 21.1875 10.625 C14.5855471 10.19038868 8.0574346 9.43943259 1.5 8.5625 C0.55664795 8.4402002 -0.3867041 8.31790039 -1.35864258 8.19189453 C-10.82069368 6.8929001 -10.82069368 6.8929001 -15 5 C-15.33 4.01 -15.66 3.02 -16 2 C-11.1993048 -2.13853035 -5.83891733 -1.20213004 0 0 Z " fill="#A92B44" transform="translate(68,45)"/>
<path d="M0 0 C3.125 -0.1875 3.125 -0.1875 6 0 C8.20932445 4.29590866 8.20932445 4.29590866 7.3125 7.3125 C6.6628125 8.6428125 6.6628125 8.6428125 6 10 C5.44657801 11.4330154 4.90547301 12.87083173 4.375 14.3125 C3.92125 15.529375 3.4675 16.74625 3 18 C6.465 17.505 6.465 17.505 10 17 C10.33 16.01 10.66 15.02 11 14 C11.99 13.67 12.98 13.34 14 13 C14.33 11.35 14.66 9.7 15 8 C17.38355811 7.93379005 19.5327732 7.87974331 21.8515625 8.4765625 C25.11481869 9.27161037 28.41409154 9.38792626 31.7578125 9.62109375 C34 10 34 10 36 12 C35.625 14.625 35.625 14.625 35 17 C35.928125 17.0928125 35.928125 17.0928125 36.875 17.1875 C39 18 39 18 40.25 20.5625 C40.4975 21.366875 40.745 22.17125 41 23 C39 25 39 25 35.9609375 25.1953125 C34.77757812 25.17210938 33.59421875 25.14890625 32.375 25.125 C31.18648437 25.10695313 29.99796875 25.08890625 28.7734375 25.0703125 C27.85820312 25.04710938 26.94296875 25.02390625 26 25 C25.67 24.01 25.34 23.02 25 22 C24.01 21.67 23.02 21.34 22 21 C21.3125 18.9375 21.3125 18.9375 21 17 C19.35 16.67 17.7 16.34 16 16 C15.34 16.99 14.68 17.98 14 19 C15.32 19.66 16.64 20.32 18 21 C17.67 21.99 17.34 22.98 17 24 C11.72 24 6.44 24 1 24 C0.67 22.35 0.34 20.7 0 19 C-0.721875 18.113125 -1.44375 17.22625 -2.1875 16.3125 C-4.52465088 12.04115529 -3.85956733 9.86089827 -2.7734375 5.26953125 C-2 3 -2 3 0 0 Z " fill="#ECC389" transform="translate(170,15)"/>
<path d="M0 0 C1.32 0 2.64 0 4 0 C3.9375 2.3125 3.9375 2.3125 3 5 C-0.5625 6.8125 -0.5625 6.8125 -4 8 C-4 9.98 -4 11.96 -4 14 C-7.69541586 14.95024979 -10.30458414 14.95024979 -14 14 C-13.505 14.433125 -13.01 14.86625 -12.5 15.3125 C-11 17 -11 17 -11 20 C-9.68 20.33 -8.36 20.66 -7 21 C-7 22.98 -7 24.96 -7 27 C-9.80004844 28.07694171 -11.1911574 27.95876997 -14.1875 27.3125 C-17 26 -17 26 -17.875 23.875 C-17.936875 22.946875 -17.936875 22.946875 -18 22 C-19.32 21.67 -20.64 21.34 -22 21 C-21.835 22.03125 -21.67 23.0625 -21.5 24.125 C-21.06678152 27.48244326 -20.91764297 30.62336157 -21 34 C-21.66 33.34 -22.32 32.68 -23 32 C-23 30.68 -23 29.36 -23 28 C-24.65 28 -26.3 28 -28 28 C-28.5534764 25.92446352 -29 24.15634036 -29 22 C-29.99 21.34 -30.98 20.68 -32 20 C-31.28552219 16.83272725 -30.25622485 13.8930968 -29.0625 10.875 C-28.72347656 10.00617187 -28.38445312 9.13734375 -28.03515625 8.2421875 C-26.7999819 5.56675325 -25.58014873 4.32726338 -23.01953125 2.8828125 C-18.57532564 1.58347166 -14.28987918 1.79043332 -9.6875 1.875 C-8.75615234 1.88402344 -7.82480469 1.89304687 -6.86523438 1.90234375 C-4.5765564 1.92581737 -2.28841328 1.95865271 0 2 C0 1.34 0 0.68 0 0 Z M-22 7 C-22 8.32 -22 9.64 -22 11 C-18.39007621 10.34414811 -18.39007621 10.34414811 -15 9 C-15 8.34 -15 7.68 -15 7 C-17.31 7 -19.62 7 -22 7 Z M-14 7 C-14 7.66 -14 8.32 -14 9 C-12.02 8.67 -10.04 8.34 -8 8 C-8 7.67 -8 7.34 -8 7 C-9.98 7 -11.96 7 -14 7 Z " fill="#AD2D38" transform="translate(154,17)"/>
<path d="M0 0 C11.89480531 0.19412887 11.89480531 0.19412887 16 3.1875 C16.63035156 3.85072266 16.63035156 3.85072266 17.2734375 4.52734375 C22.18592274 8.71740469 29.67946886 11.70506191 36 13 C35.67 14.98 35.34 16.96 35 19 C35.66 19 36.32 19 37 19 C37.96070434 21.88211302 38.10581883 23.69850044 38.0625 26.6875 C38.05347656 27.49574219 38.04445312 28.30398437 38.03515625 29.13671875 C38.02355469 29.75160156 38.01195312 30.36648437 38 31 C36.68 31.33 35.36 31.66 34 32 C34 31.34 34 30.68 34 30 C33.01 30 32.02 30 31 30 C28.50022457 26.66696609 28 25.26696398 28 21 C26.8553125 20.7834375 26.8553125 20.7834375 25.6875 20.5625 C21.73084725 19.73436338 19.75386275 18.86860704 17 16 C16.01 15.34 15.02 14.68 14 14 C14 13.34 14 12.68 14 12 C11.89861678 10.94690406 9.79571671 9.90215002 7.67578125 8.88671875 C6.89589844 8.49097656 6.11601563 8.09523438 5.3125 7.6875 C4.52488281 7.29949219 3.73726563 6.91148438 2.92578125 6.51171875 C1 5 1 5 0.23046875 2.33203125 C0.15441406 1.56246094 0.07835937 0.79289063 0 0 Z " fill="#1171AA" transform="translate(0,3)"/>
<path d="M0 0 C0.66 0.33 1.32 0.66 2 1 C0.55962541 3.88074917 -0.43385268 5.66974739 -3.25 7.3125 C-6 8 -6 8 -9.125 7.875 C-14.40706791 8.04538929 -19.36878889 9.40395778 -24 12 C-25.36099394 14.91469499 -24.96536713 16.9966356 -24 20 C-23.18917969 20.12117188 -22.37835938 20.24234375 -21.54296875 20.3671875 C-14.33712841 21.45771049 -7.16192525 22.65085977 0 24 C0.598125 23.195625 1.19625 22.39125 1.8125 21.5625 C4 19 4 19 7 18 C6.67 20.64 6.34 23.28 6 26 C2.88591117 27.03802961 0.27853088 27.74286032 -3 28 C-3.928125 27.525625 -4.85625 27.05125 -5.8125 26.5625 C-9.5113421 24.74934211 -11.86377194 24.81514549 -15.890625 24.95703125 C-18.38799481 25.0079036 -20.58535071 24.62090982 -23 24 C-23.763125 23.814375 -24.52625 23.62875 -25.3125 23.4375 C-25.869375 23.293125 -26.42625 23.14875 -27 23 C-27.33 21.02 -27.66 19.04 -28 17 C-29.32 16.67 -30.64 16.34 -32 16 C-32.2226746 14.56465159 -32.42761906 13.12654475 -32.625 11.6875 C-32.74101563 10.88699219 -32.85703125 10.08648437 -32.9765625 9.26171875 C-33 7 -33 7 -31 4 C-30.278125 4.144375 -29.55625 4.28875 -28.8125 4.4375 C-27.4203125 4.7159375 -27.4203125 4.7159375 -26 5 C-25.26136719 5.18175781 -24.52273437 5.36351562 -23.76171875 5.55078125 C-20.41659015 6.09489693 -17.38104616 5.96860212 -14 5.75 C-12.80375 5.68296875 -11.6075 5.6159375 -10.375 5.546875 C-5.86907196 4.81674777 -3.1965752 3.1965752 0 0 Z " fill="#B23768" transform="translate(105,13)"/>
<path d="M0 0 C2.27113803 0.14100857 4.54190725 0.28796755 6.8125 0.4375 C8.07707031 0.51871094 9.34164062 0.59992187 10.64453125 0.68359375 C14 1 14 1 17 2 C17 10.91 17 19.82 17 29 C12 26 12 26 11 25 C8.81360547 24.92741054 6.62499611 24.91626217 4.4375 24.9375 C3.23996094 24.94652344 2.04242188 24.95554687 0.80859375 24.96484375 C-0.58166016 24.98224609 -0.58166016 24.98224609 -2 25 C-2.33 24.01 -2.66 23.02 -3 22 C0.86324227 19.68205464 3.02282239 19.71102537 8 19 C8.33 14.05 8.66 9.1 9 4 C6.03 3.01 3.06 2.02 0 1 C0 0.67 0 0.34 0 0 Z " fill="#0F9552" transform="translate(223,30)"/>
<path d="M0 0 C0.33 1.65 0.66 3.3 1 5 C1.61875 5.061875 2.2375 5.12375 2.875 5.1875 C5 6 5 6 6.25 8.5625 C6.4975 9.366875 6.745 10.17125 7 11 C5 13 5 13 1.9609375 13.1953125 C0.77757812 13.17210937 -0.40578125 13.14890625 -1.625 13.125 C-2.81351563 13.10695313 -4.00203125 13.08890625 -5.2265625 13.0703125 C-6.14179688 13.04710937 -7.05703125 13.02390625 -8 13 C-8.33 12.01 -8.66 11.02 -9 10 C-9.99 9.67 -10.98 9.34 -12 9 C-11.9071875 7.824375 -11.9071875 7.824375 -11.8125 6.625 C-11.874375 5.75875 -11.93625 4.8925 -12 4 C-12.99 3.34 -13.98 2.68 -15 2 C-15 1.34 -15 0.68 -15 0 C-10.1129572 -1.5638537 -4.8870428 -1.5638537 0 0 Z " fill="#C5CB3D" transform="translate(204,27)"/>
<path d="M0 0 C1.5 1.375 1.5 1.375 3 3 C3 3.66 3 4.32 3 5 C4.98 5 6.96 5 9 5 C9.33 5.99 9.66 6.98 10 8 C12.00016466 9.20882096 12.00016466 9.20882096 14 10 C14 11.32 14 12.64 14 14 C12.35 14.33 10.7 14.66 9 15 C8.34 13.02 7.68 11.04 7 9 C5.68 9.33 4.36 9.66 3 10 C2.83318891 12.91652174 2.83318891 12.91652174 3 16 C3.66 16.66 4.32 17.32 5 18 C5.26991906 20.68839385 5.08737357 23.29141936 5 26 C4.34 25.34 3.68 24.68 3 24 C3 22.68 3 21.36 3 20 C1.35 20 -0.3 20 -2 20 C-2.5534764 17.92446352 -3 16.15634036 -3 14 C-3.99 13.34 -4.98 12.68 -6 12 C-5.21910455 8.09552275 -3.69382187 4.59090237 -2 1 C-1.34 0.67 -0.68 0.34 0 0 Z " fill="#D82B4D" transform="translate(128,25)"/>
<path d="M0 0 C0.81726563 0.19464844 1.63453125 0.38929687 2.4765625 0.58984375 C3.41628906 0.82380859 3.41628906 0.82380859 4.375 1.0625 C4.375 0.4025 4.375 -0.2575 4.375 -0.9375 C5.695 -0.9375 7.015 -0.9375 8.375 -0.9375 C8.60888439 1.91588956 8.79494081 4.26657827 8.375 7.0625 C4.62345865 10.81404135 -0.56783015 10.74298382 -5.625 11.0625 C-5.625 10.4025 -5.625 9.7425 -5.625 9.0625 C-3.99873596 7.68017557 -2.3324998 6.34312485 -0.625 5.0625 C-5.41756709 3.51689711 -10.34294652 4.09104731 -15.3125 4.22265625 C-18.4343959 4.07171553 -20.03181284 3.71565682 -22.625 2.0625 C-21.635 2.0625 -20.645 2.0625 -19.625 2.0625 C-19.625 1.4025 -19.625 0.7425 -19.625 0.0625 C-18.70976562 0.07410156 -17.79453125 0.08570313 -16.8515625 0.09765625 C-15.66304687 0.10667969 -14.47453125 0.11570313 -13.25 0.125 C-11.47496094 0.14240234 -11.47496094 0.14240234 -9.6640625 0.16015625 C-0.546875 -0.1328125 -0.546875 -0.1328125 0 0 Z " fill="#98242A" transform="translate(147.625,52.9375)"/>
<path d="M0 0 C0.78310547 0.36351562 0.78310547 0.36351562 1.58203125 0.734375 C7.61442817 3.4811757 13.74813925 5.80308445 20 8 C19.67 9.98 19.34 11.96 19 14 C19.66 14 20.32 14 21 14 C21.96070434 16.88211302 22.10581883 18.69850044 22.0625 21.6875 C22.05347656 22.49574219 22.04445313 23.30398437 22.03515625 24.13671875 C22.02355469 24.75160156 22.01195313 25.36648437 22 26 C20.68 26.33 19.36 26.66 18 27 C18 26.34 18 25.68 18 25 C17.01 25 16.02 25 15 25 C13.9375 23.125 13.9375 23.125 13 21 C13.33 20.34 13.66 19.68 14 19 C14.66 19 15.32 19 16 19 C16 17.68 16 16.36 16 15 C15.21625 14.814375 14.4325 14.62875 13.625 14.4375 C12.75875 13.963125 11.8925 13.48875 11 13 C10.690625 11.845 10.38125 10.69 10.0625 9.5 C9.711875 8.345 9.36125 7.19 9 6 C6.10809595 4.59155349 6.10809595 4.59155349 3 4 C2.01 3.34 1.02 2.68 0 2 C0 1.34 0 0.68 0 0 Z " fill="#16559B" transform="translate(16,8)"/>
<path d="M0 0 C2.38355811 -0.06620995 4.5327732 -0.12025669 6.8515625 0.4765625 C10.11481869 1.27161037 13.41409154 1.38792626 16.7578125 1.62109375 C19 2 19 2 21 4 C20.67 4.99 20.34 5.98 20 7 C19.505 5.515 19.505 5.515 19 4 C14.05 4 9.1 4 4 4 C4 4.66 4 5.32 4 6 C5.32 6.66 6.64 7.32 8 8 C7.67 8.66 7.34 9.32 7 10 C5.02 9.34 3.04 8.68 1 8 C0.01 9.485 0.01 9.485 -1 11 C0.32 11.66 1.64 12.32 3 13 C2.67 13.99 2.34 14.98 2 16 C-0.12438339 16.08078641 -2.2496323 16.13909141 -4.375 16.1875 C-5.55835938 16.22230469 -6.74171875 16.25710937 -7.9609375 16.29296875 C-9.46527344 16.14794922 -9.46527344 16.14794922 -11 16 C-11.66 15.01 -12.32 14.02 -13 13 C-9.7 13 -6.4 13 -3 13 C-5.64 12.67 -8.28 12.34 -11 12 C-11 11.34 -11 10.68 -11 10 C-9.02 9.67 -7.04 9.34 -5 9 C-4.67 8.01 -4.34 7.02 -4 6 C-3.01 5.67 -2.02 5.34 -1 5 C-0.67 3.35 -0.34 1.7 0 0 Z " fill="#E9D484" transform="translate(185,23)"/>
<path d="M0 0 C1.640625 0.81640625 1.640625 0.81640625 3.953125 2.25390625 C2.963125 2.58390625 1.973125 2.91390625 0.953125 3.25390625 C0.953125 3.91390625 0.953125 4.57390625 0.953125 5.25390625 C2.2525 5.37765625 3.551875 5.50140625 4.890625 5.62890625 C9.67162452 6.15253953 14.28426601 7.1170446 18.953125 8.25390625 C18.953125 8.58390625 18.953125 8.91390625 18.953125 9.25390625 C12.45494159 9.42288974 6.25917417 8.78150964 -0.171875 7.87890625 C-1.61626953 7.68941406 -1.61626953 7.68941406 -3.08984375 7.49609375 C-12.89089308 6.14794391 -12.89089308 6.14794391 -17.046875 4.25390625 C-17.376875 3.26390625 -17.706875 2.27390625 -18.046875 1.25390625 C-12.92719358 -3.15961222 -6.0299542 -2.19794132 0 0 Z " fill="#61256D" transform="translate(70.046875,45.74609375)"/>
<path d="M0 0 C2.54055845 0.25552438 5.03852505 0.56707159 7.5625 0.9375 C8.27341797 1.03740234 8.98433594 1.13730469 9.71679688 1.24023438 C11.47856957 1.48853791 13.23938152 1.74364039 15 2 C15.33 2.99 15.66 3.98 16 5 C17.49985609 6.66710346 17.49985609 6.66710346 19 8 C15.95613276 8.08226668 13.92824652 7.97608217 11 7 C9.6189439 7.13588705 8.24304026 7.32958992 6.875 7.5625 C0.84269972 8.34117928 -4.30611511 6.89796163 -10 5 C-10 4.34 -10 3.68 -10 3 C-9.04287109 2.80083984 -9.04287109 2.80083984 -8.06640625 2.59765625 C-7.24011719 2.42105469 -6.41382812 2.24445312 -5.5625 2.0625 C-4.73878906 1.88847656 -3.91507812 1.71445312 -3.06640625 1.53515625 C-1.02338796 1.19247006 -1.02338796 1.19247006 0 0 Z " fill="#A32576" transform="translate(81,46)"/>
<path d="M0 0 C1.65 0 3.3 0 5 0 C5 0.66 5 1.32 5 2 C6.5778125 1.7834375 6.5778125 1.7834375 8.1875 1.5625 C12 2 12 2 13.3671875 3.453125 C14.17250633 4.70584318 14.96135657 5.96928382 15.734375 7.2421875 C17.62777839 9.87191442 20.04783668 10.83286566 23 12 C22.01 12.99 21.02 13.98 20 15 C19.2575 14.443125 18.515 13.88625 17.75 13.3125 C13.68079492 10.56383022 9.16367474 8.9271068 4.609375 7.1484375 C2 6 2 6 0 4 C0 2.68 0 1.36 0 0 Z " fill="#0C83BF" transform="translate(0,3)"/>
<path d="M0 0 C7.42857143 -0.28571429 7.42857143 -0.28571429 11 2 C10.67 3.65 10.34 5.3 10 7 C10.66 7 11.32 7 12 7 C12.103125 7.61875 12.20625 8.2375 12.3125 8.875 C12.87525373 11.36526484 12.87525373 11.36526484 16 13 C15.67 13.99 15.34 14.98 15 16 C14.2575 16.04125 13.515 16.0825 12.75 16.125 C8.93034719 17.34034407 8.15429417 19.73381207 6 23 C4.68 23 3.36 23 2 23 C2 22.34 2 21.68 2 21 C3.65 20.67 5.3 20.34 7 20 C6.67 17.69 6.34 15.38 6 13 C6.99 13 7.98 13 9 13 C8.47731534 10.23723823 7.89130413 7.6739124 7 5 C7.33 4.34 7.66 3.68 8 3 C5.36 3 2.72 3 0 3 C0 3.66 0 4.32 0 5 C-0.66 5 -1.32 5 -2 5 C-1.34 3.35 -0.68 1.7 0 0 Z " fill="#AC1B5A" transform="translate(108,7)"/>
<path d="M0 0 C1.65 0.33 3.3 0.66 5 1 C5.33 1.99 5.66 2.98 6 4 C6.66 4.33 7.32 4.66 8 5 C7.67 5.66 7.34 6.32 7 7 C7.99 7.33 8.98 7.66 10 8 C9.649375 9.11375 9.29875 10.2275 8.9375 11.375 C7.62760669 14.80264476 7.62760669 14.80264476 9 17 C1.57142857 17.28571429 1.57142857 17.28571429 -2 15 C-0.25 11.125 -0.25 11.125 2 10 C1.814375 9.21625 1.62875 8.4325 1.4375 7.625 C1 5 1 5 2 3 C1.34 3 0.68 3 0 3 C0 2.01 0 1.02 0 0 Z " fill="#9BBC51" transform="translate(210,25)"/>
<path d="M0 0 C1.65 0 3.3 0 5 0 C5 0.99 5 1.98 5 3 C5.639375 3.185625 6.27875 3.37125 6.9375 3.5625 C9 5 9 5 9.75 8.625 C9.87375 10.295625 9.87375 10.295625 10 12 C6.77390955 13.07536348 4.37822416 13.14375422 1 13 C0.34 12.67 -0.32 12.34 -1 12 C-1 11.34 -1 10.68 -1 10 C-0.34 10 0.32 10 1 10 C1 8.02 1 6.04 1 4 C0.34 3.67 -0.32 3.34 -1 3 C-0.67 2.01 -0.34 1.02 0 0 Z " fill="#313488" transform="translate(46,30)"/>
<path d="M0 0 C0.66 0.33 1.32 0.66 2 1 C0.55962541 3.88074917 -0.43385268 5.66974739 -3.25 7.3125 C-6.56836579 8.14209145 -9.58992215 8.06314959 -13 8 C-13.99 8.33 -14.98 8.66 -16 9 C-21.03943886 9.40579751 -25.41808226 9.36486077 -30 7 C-30 8.98 -30 10.96 -30 13 C-30.99 13.495 -30.99 13.495 -32 14 C-33.25 7.375 -33.25 7.375 -31 4 C-30.278125 4.144375 -29.55625 4.28875 -28.8125 4.4375 C-27.4203125 4.7159375 -27.4203125 4.7159375 -26 5 C-25.26136719 5.18175781 -24.52273437 5.36351562 -23.76171875 5.55078125 C-20.41659015 6.09489693 -17.38104616 5.96860212 -14 5.75 C-12.80375 5.68296875 -11.6075 5.6159375 -10.375 5.546875 C-5.86907196 4.81674777 -3.1965752 3.1965752 0 0 Z " fill="#AB1F60" transform="translate(105,13)"/>
<path d="M0 0 C2.6875 1.8125 2.6875 1.8125 5 4 C5 4.66 5 5.32 5 6 C5.66 6.33 6.32 6.66 7 7 C5.35 7.33 3.7 7.66 2 8 C1.67 10.31 1.34 12.62 1 15 C-0.26362492 15.55827609 -1.5362919 16.09612097 -2.8125 16.625 C-3.52019531 16.92664063 -4.22789063 17.22828125 -4.95703125 17.5390625 C-5.63121094 17.69117187 -6.30539063 17.84328125 -7 18 C-7.99 17.34 -8.98 16.68 -10 16 C-10 15.34 -10 14.68 -10 14 C-10.99 13.67 -11.98 13.34 -13 13 C-12.34 12.67 -11.68 12.34 -11 12 C-10.34 12.33 -9.68 12.66 -9 13 C-7.62657169 13.0689472 -6.24997898 13.08467708 -4.875 13.0625 C-3.59625 13.041875 -2.3175 13.02125 -1 13 C-1.18129815 9.56206661 -1.18129815 9.56206661 -2 6 C-3.93597032 4.48705712 -3.93597032 4.48705712 -6 4 C-5.01 3.67 -4.02 3.34 -3 3 C-3 2.34 -3 1.68 -3 1 C-2.01 0.67 -1.02 0.34 0 0 Z " fill="#311E5D" transform="translate(56,29)"/>
<path d="M0 0 C0.66 0 1.32 0 2 0 C2.73080266 1.97746603 3.39421747 3.98072489 4 6 C3.67 6.66 3.34 7.32 3 8 C3.99 8 4.98 8 6 8 C6 12.29 6 16.58 6 21 C5.34 21 4.68 21 4 21 C4 20.34 4 19.68 4 19 C2.68 18.67 1.36 18.34 0 18 C-1.04167441 13.90274731 -0.94409525 10.38504776 -0.5625 6.1875 C-0.46066406 5.02605469 -0.35882813 3.86460938 -0.25390625 2.66796875 C-0.17011719 1.78753906 -0.08632812 0.90710937 0 0 Z " fill="#1EA653" transform="translate(232,34)"/>
<path d="M0 0 C1.67542976 0.28604898 3.34385343 0.61781233 5 1 C4.94014838 3.62748631 4.85323776 6.24916995 4.75 8.875 C4.73582031 9.62136719 4.72164062 10.36773437 4.70703125 11.13671875 C4.609375 13.3046875 4.609375 13.3046875 4 17 C1.953125 18.5078125 1.953125 18.5078125 0 19 C-0.99 18.34 -1.98 17.68 -3 17 C-3 16.34 -3 15.68 -3 15 C-2.01 15 -1.02 15 0 15 C-0.33 14.34 -0.66 13.68 -1 13 C-1.0962762 10.98103136 -1.12981825 8.9587571 -1.125 6.9375 C-1.12757813 5.85339844 -1.13015625 4.76929688 -1.1328125 3.65234375 C-1 1 -1 1 0 0 Z " fill="#4DAB53" transform="translate(228,32)"/>
<path d="M0 0 C0.66 0.33 1.32 0.66 2 1 C2 1.99 2 2.98 2 4 C4.64 4.33 7.28 4.66 10 5 C10 5.66 10 6.32 10 7 C11.65 6.67 13.3 6.34 15 6 C15.33 7.32 15.66 8.64 16 10 C17.32 10.33 18.64 10.66 20 11 C10.85719039 10.56408185 1.97145478 9.9577539 -7 8 C-7 7.34 -7 6.68 -7 6 C-4.23735711 5.40267181 -1.83967231 5 1 5 C0.01 4.34 -0.98 3.68 -2 3 C-1.34 2.67 -0.68 2.34 0 2 C0 1.34 0 0.68 0 0 Z " fill="#8A1D48" transform="translate(96,47)"/>
<path d="M0 0 C0.99 0 1.98 0 3 0 C3.23388439 2.85338956 3.41994081 5.20407827 3 8 C-0.75154135 11.75154135 -5.94283015 11.68048382 -11 12 C-11 11.34 -11 10.68 -11 10 C-5.64285714 5 -5.64285714 5 -2 5 C-2 4.34 -2 3.68 -2 3 C-1.34 2.67 -0.68 2.34 0 2 C0 1.34 0 0.68 0 0 Z " fill="#B2463D" transform="translate(153,52)"/>
<path d="M0 0 C2.97 0 5.94 0 9 0 C9.33 1.65 9.66 3.3 10 5 C11.65 5.33 13.3 5.66 15 6 C15 7.32 15 8.64 15 10 C12.69 10 10.38 10 8 10 C7.67 8.35 7.34 6.7 7 5 C4.36 4.34 1.72 3.68 -1 3 C-0.67 2.01 -0.34 1.02 0 0 Z " fill="#DAAA93" transform="translate(153,29)"/>
<path d="M0 0 C1.98 0.66 3.96 1.32 6 2 C6 2.66 6 3.32 6 4 C6.99 4.33 7.98 4.66 9 5 C9 6.32 9 7.64 9 9 C9.66 9 10.32 9 11 9 C11 8.34 11 7.68 11 7 C12.65 6.67 14.3 6.34 16 6 C16 6.99 16 7.98 16 9 C15.01 9 14.02 9 13 9 C13 9.99 13 10.98 13 12 C10.25 12.375 10.25 12.375 7 12 C4.6875 9.0625 4.6875 9.0625 3 6 C2.67 5.67 2.34 5.34 2 5 C1.67 4.34 1.34 3.68 1 3 C0.01 2.67 -0.98 2.34 -2 2 C-1.34 1.34 -0.68 0.68 0 0 Z " fill="#293165" transform="translate(37,18)"/>
<path d="M0 0 C2.64 0 5.28 0 8 0 C8.144375 0.763125 8.28875 1.52625 8.4375 2.3125 C8.9632594 5.08172908 8.9632594 5.08172908 10 8 C9.67 8.66 9.34 9.32 9 10 C6.9375 10.625 6.9375 10.625 5 11 C4.731875 10.195625 4.46375 9.39125 4.1875 8.5625 C3.795625 7.716875 3.40375 6.87125 3 6 C0.10813214 4.66695302 0.10813214 4.66695302 -2.1875 5.9375 C-2.785625 6.288125 -3.38375 6.63875 -4 7 C-3.34 5.35 -2.68 3.7 -2 2 C-1.34 2 -0.68 2 0 2 C0 1.34 0 0.68 0 0 Z " fill="#DB216A" transform="translate(108,10)"/>
<path d="M0 0 C0.33 0.99 0.66 1.98 1 3 C3.01508358 3.73323796 3.01508358 3.73323796 5 4 C5 4.66 5 5.32 5 6 C6.32 5.67 7.64 5.34 9 5 C9 6.65 9 8.3 9 10 C4.125 7.125 4.125 7.125 3 6 C0.81360547 5.92741054 -1.37500389 5.91626217 -3.5625 5.9375 C-4.76003906 5.94652344 -5.95757812 5.95554687 -7.19140625 5.96484375 C-8.58166016 5.98224609 -8.58166016 5.98224609 -10 6 C-10.33 5.01 -10.66 4.02 -11 3 C-7.46588679 0.87953208 -4.05606165 0.46800711 0 0 Z " fill="#459E49" transform="translate(231,49)"/>
<path d="M0 0 C3.3 0 6.6 0 10 0 C11 3 11 3 11 6 C10.01 6 9.02 6 8 6 C8 6.66 8 7.32 8 8 C6.35 8 4.7 8 3 8 C2.67 7.01 2.34 6.02 2 5 C1.01 4.67 0.02 4.34 -1 4 C-0.67 2.68 -0.34 1.36 0 0 Z " fill="#DBDA61" transform="translate(193,32)"/>
<path d="M0 0 C3.3 0.99 6.6 1.98 10 3 C8.74458443 5.51083114 7.49936512 5.87125446 5 7 C5.25561323 9.3431213 5.59270772 11.67843403 6 14 C6.66 14.33 7.32 14.66 8 15 C7.01 15 6.02 15 5 15 C4.34 13.35 3.68 11.7 3 10 C1.68 10 0.36 10 -1 10 C-1.02689216 8.52093108 -1.04634621 7.04172517 -1.0625 5.5625 C-1.07410156 4.73878906 -1.08570312 3.91507813 -1.09765625 3.06640625 C-1 1 -1 1 0 0 Z " fill="#992D80" transform="translate(75,19)"/>
<path d="M0 0 C2.125 0.375 2.125 0.375 4 1 C4.33 2.98 4.66 4.96 5 7 C6.98 6.34 8.96 5.68 11 5 C11.66 5.66 12.32 6.32 13 7 C12.34 8.32 11.68 9.64 11 11 C8.625 11.125 8.625 11.125 6 11 C5.34 10.34 4.68 9.68 4 9 C4 8.01 4 7.02 4 6 C2.68 5.67 1.36 5.34 0 5 C0.33 5.99 0.66 6.98 1 8 C0.01 8.33 -0.98 8.66 -2 9 C-2.125 5.625 -2.125 5.625 -2 2 C-1.34 1.34 -0.68 0.68 0 0 Z " fill="#AE222E" transform="translate(132,33)"/>
<path d="M0 0 C2.55720621 1.12410523 3.40274209 1.81158604 4.6875 4.33203125 C5.42519582 6.58413147 6.05317537 8.81121098 6.5625 11.125 C7.5525 11.125 8.5425 11.125 9.5625 11.125 C9.8925 12.445 10.2225 13.765 10.5625 15.125 C11.5525 14.795 12.5425 14.465 13.5625 14.125 C13.5625 14.785 13.5625 15.445 13.5625 16.125 C15.2125 16.785 16.8625 17.445 18.5625 18.125 C18.2325 18.785 17.9025 19.445 17.5625 20.125 C16.14374235 19.35802204 14.72758548 18.58623222 13.3125 17.8125 C12.52359375 17.38324219 11.7346875 16.95398438 10.921875 16.51171875 C7.18824543 14.31728415 4.49738498 12.56387299 2.5625 8.625 C0.97449059 5.68562572 -0.38054494 3.70278326 -3.4375 2.125 C-4.4275 2.455 -5.4175 2.785 -6.4375 3.125 C-6.1075 2.135 -5.7775 1.145 -5.4375 0.125 C-3.4375 -0.875 -3.4375 -0.875 0 0 Z " fill="#1A3D70" transform="translate(24.4375,21.875)"/>
<path d="M0 0 C1.21945313 0.09925781 2.43890625 0.19851562 3.6953125 0.30078125 C6.875 0.6875 6.875 0.6875 9.875 1.6875 C10.865 1.3575 11.855 1.0275 12.875 0.6875 C12.545 1.6775 12.215 2.6675 11.875 3.6875 C10.29912109 3.67009766 10.29912109 3.67009766 8.69140625 3.65234375 C1.33573519 3.59630054 -5.82559996 3.64472857 -13.125 4.6875 C-12.125 1.6875 -12.125 1.6875 -10.0078125 0.48046875 C-6.47057704 -0.49251065 -3.64905225 -0.32151947 0 0 Z " fill="#982226" transform="translate(141.125,19.3125)"/>
<path d="M0 0 C2.97 0.495 2.97 0.495 6 1 C7.6240458 12.30248092 7.6240458 12.30248092 5 16 C2.375 16.8125 2.375 16.8125 0 17 C0 14 0 14 2 12 C2.24287489 9.55987051 2.24287489 9.55987051 2.125 6.875 C2.10695312 5.96492188 2.08890625 5.05484375 2.0703125 4.1171875 C2.04710937 3.41851563 2.02390625 2.71984375 2 2 C1.34 2 0.68 2 0 2 C0 1.34 0 0.68 0 0 Z " fill="#1D4995" transform="translate(35,20)"/>
<path d="M0 0 C1.32 0 2.64 0 4 0 C3.9375 2.3125 3.9375 2.3125 3 5 C0.68191636 6.03485877 -1.65175298 7.0355414 -4 8 C-5.04289755 10.06890419 -5.04289755 10.06890419 -5 12 C-6.65 12 -8.3 12 -10 12 C-10.33 11.01 -10.66 10.02 -11 9 C-10.01 8.67 -9.02 8.34 -8 8 C-8 7.34 -8 6.68 -8 6 C-4.535 5.505 -4.535 5.505 -1 5 C-1.66 5 -2.32 5 -3 5 C-3.99 4.67 -4.98 4.34 -6 4 C-2.25 2 -2.25 2 0 2 C0 1.34 0 0.68 0 0 Z " fill="#B15549" transform="translate(154,17)"/>
<path d="M0 0 C2.38355811 -0.06620995 4.5327732 -0.12025669 6.8515625 0.4765625 C10.11481869 1.27161037 13.41409154 1.38792626 16.7578125 1.62109375 C19 2 19 2 21 4 C20.67 4.99 20.34 5.98 20 7 C19.67 6.01 19.34 5.02 19 4 C14.05 4 9.1 4 4 4 C4 4.66 4 5.32 4 6 C5.32 6.66 6.64 7.32 8 8 C7.67 8.66 7.34 9.32 7 10 C5.02 9.34 3.04 8.68 1 8 C1 7.34 1 6.68 1 6 C1.66 6 2.32 6 3 6 C3 5.34 3 4.68 3 4 C2.34 3.67 1.68 3.34 1 3 C1.99 2.67 2.98 2.34 4 2 C2.68 2 1.36 2 0 2 C0 1.34 0 0.68 0 0 Z " fill="#EFE98A" transform="translate(185,23)"/>
<path d="M0 0 C1.46726798 3.81489674 0.43336419 6.29011622 -1 10 C-0.34 10.33 0.32 10.66 1 11 C1.6875 12.9375 1.6875 12.9375 2 15 C1.67 15.66 1.34 16.32 1 17 C2.65 17 4.3 17 6 17 C7.35439668 19.70879335 7.06501451 22.00933268 7 25 C6.34 24.34 5.68 23.68 5 23 C5 21.68 5 20.36 5 19 C3.35 19 1.7 19 0 19 C-0.5534764 16.92446352 -1 15.15634036 -1 13 C-1.99 12.34 -2.98 11.68 -4 11 C-3.21681311 7.08406554 -1.60820142 3.63593365 0 0 Z " fill="#962641" transform="translate(126,26)"/>
<path d="M0 0 C0.99 0.66 1.98 1.32 3 2 C2.01 2.33 1.02 2.66 0 3 C-0.6837045 4.32467746 -1.34964186 5.65863633 -2 7 C-5 9 -5 9 -8.625 8.75 C-9.73875 8.5025 -10.8525 8.255 -12 8 C-12.33 7.34 -12.66 6.68 -13 6 C-12.030625 5.87625 -11.06125 5.7525 -10.0625 5.625 C-9.051875 5.41875 -8.04125 5.2125 -7 5 C-6.67 4.34 -6.34 3.68 -6 3 C-5.67 3.33 -5.34 3.66 -5 4 C-4.54625 3.525625 -4.0925 3.05125 -3.625 2.5625 C-2 1 -2 1 0 0 Z " fill="#DE1C72" transform="translate(109,29)"/>
<path d="M0 0 C1.32 0 2.64 0 4 0 C4.33 1.98 4.66 3.96 5 6 C5.69867188 5.98839844 6.39734375 5.97679687 7.1171875 5.96484375 C8.02726563 5.95582031 8.93734375 5.94679688 9.875 5.9375 C10.77992188 5.92589844 11.68484375 5.91429687 12.6171875 5.90234375 C15 6 15 6 17 7 C16.67 7.66 16.34 8.32 16 9 C14.046875 8.73958333 12.09375 8.47916667 10.140625 8.21875 C7.69541605 7.93222643 7.69541605 7.93222643 4 8 C4.33 8.66 4.66 9.32 5 10 C3.68 9.67 2.36 9.34 1 9 C1 7.35 1 5.7 1 4 C0.34 3.67 -0.32 3.34 -1 3 C-0.67 2.01 -0.34 1.02 0 0 Z " fill="#DBB46B" transform="translate(169,29)"/>
<path d="M0 0 C1.65 0 3.3 0 5 0 C5.33 0.99 5.66 1.98 6 3 C7.65 3.33 9.3 3.66 11 4 C10.67 5.65 10.34 7.3 10 9 C8.70590408 8.54857119 7.41478941 8.08858979 6.125 7.625 C5.40570312 7.36976562 4.68640625 7.11453125 3.9453125 6.8515625 C2 6 2 6 0 4 C0 2.68 0 1.36 0 0 Z " fill="#1C7DAF" transform="translate(0,3)"/>
<path d="M0 0 C2.3125 2.0625 2.3125 2.0625 4 4 C2.5 5.1875 2.5 5.1875 0 6 C-2.78824238 5.27101296 -5.37665092 4.1843275 -8 3 C-8 2.01 -8 1.02 -8 0 C-4.61786861 -1.12737713 -3.35228621 -1.06292002 0 0 Z " fill="#B33342" transform="translate(130,57)"/>
<path d="M0 0 C1.44122613 0.59522337 2.87785868 1.20157619 4.3125 1.8125 C5.11300781 2.14894531 5.91351563 2.48539063 6.73828125 2.83203125 C9.0050442 4.00260486 10.30948144 5.11737706 12 7 C12.886875 7.886875 13.77375 8.77375 14.6875 9.6875 C15.450625 10.450625 16.21375 11.21375 17 12 C15.02 12.99 15.02 12.99 13 14 C10.10067643 11.60490662 9.49831724 9.68754757 9 6 C7.6078125 5.566875 7.6078125 5.566875 6.1875 5.125 C3 4 3 4 0 2 C0 1.34 0 0.68 0 0 Z " fill="#0F65A8" transform="translate(16,8)"/>
<path d="M0 0 C3.3748916 0.16189517 6.07682239 0.85091119 9.125 2.375 C9.125 3.035 9.125 3.695 9.125 4.375 C6.815 4.375 4.505 4.375 2.125 4.375 C2.125 3.715 2.125 3.055 2.125 2.375 C1.465 2.375 0.805 2.375 0.125 2.375 C0.125 3.035 0.125 3.695 0.125 4.375 C-2.185 4.375 -4.495 4.375 -6.875 4.375 C-5.03324912 0.69149824 -4.20875631 0.407299 0 0 Z " fill="#B6895C" transform="translate(163.875,49.625)"/>
<path d="M0 0 C1.32 0 2.64 0 4 0 C4 0.66 4 1.32 4 2 C5.98 2.66 7.96 3.32 10 4 C9.67 5.32 9.34 6.64 9 8 C8.34 8 7.68 8 7 8 C6.67 8.66 6.34 9.32 6 10 C5.67 8.35 5.34 6.7 5 5 C3.35 4.67 1.7 4.34 0 4 C0 2.68 0 1.36 0 0 Z " fill="#1262AF" transform="translate(23,19)"/>
<path d="M0 0 C2.6875 1.8125 2.6875 1.8125 5 4 C5 4.66 5 5.32 5 6 C5.66 6.33 6.32 6.66 7 7 C3.29218328 8.23593891 2.32489747 7.5678132 -1.1875 6.0625 C-2.08855469 5.68222656 -2.98960938 5.30195312 -3.91796875 4.91015625 C-4.94857422 4.45962891 -4.94857422 4.45962891 -6 4 C-5.01 3.67 -4.02 3.34 -3 3 C-3 2.34 -3 1.68 -3 1 C-2.01 0.67 -1.02 0.34 0 0 Z " fill="#1A123E" transform="translate(56,29)"/>
<path d="M0 0 C1.65 0 3.3 0 5 0 C5.66 1.65 6.32 3.3 7 5 C8.0725 4.95875 9.145 4.9175 10.25 4.875 C13.65712165 4.98857072 15.26226767 5.10464685 18 7 C18.33 7.66 18.66 8.32 19 9 C14.08779315 9.14034877 9.73030752 8.22637602 5 7 C4.67 5.02 4.34 3.04 4 1 C2.68 0.67 1.36 0.34 0 0 Z " fill="#943069" transform="translate(73,29)"/>
<path d="M0 0 C0.99 0.33 1.98 0.66 3 1 C2.88658509 3.48020497 2.75985314 5.95844969 2.625 8.4375 C2.5940625 9.14455078 2.563125 9.85160156 2.53125 10.58007812 C2.42719371 12.39239188 2.22080108 14.19817988 2 16 C1.34 16.33 0.68 16.66 0 17 C-0.36122881 15.68942607 -0.71380311 14.37646376 -1.0625 13.0625 C-1.35833984 11.96615234 -1.35833984 11.96615234 -1.66015625 10.84765625 C-1.77230469 10.23792969 -1.88445312 9.62820312 -2 9 C-1.67 8.67 -1.34 8.34 -1 8 C-0.76924918 6.65252916 -0.58846937 5.29622435 -0.4375 3.9375 C-0.293125 2.638125 -0.14875 1.33875 0 0 Z " fill="#3CAA53" transform="translate(230,33)"/>
<path d="M0 0 C-0.33 1.65 -0.66 3.3 -1 5 C-7.625 5.25 -7.625 5.25 -11 3 C-11 2.34 -11 1.68 -11 1 C-7.32589215 -0.17571451 -3.83070817 -0.07366746 0 0 Z " fill="#E7DE43" transform="translate(200,26)"/>
<path d="M0 0 C0.99 0 1.98 0 3 0 C3 4.29 3 8.58 3 13 C2.34 13 1.68 13 1 13 C1 12.34 1 11.68 1 11 C0.34 11 -0.32 11 -1 11 C-2.41687119 6.74938644 -1.19320039 4.28148375 0 0 Z " fill="#109C54" transform="translate(235,42)"/>
<path d="M0 0 C2.64 0.66 5.28 1.32 8 2 C8.33 1.34 8.66 0.68 9 0 C9.33 0.99 9.66 1.98 10 3 C2.09388645 5.63537118 -5.76865163 5.17981101 -14 5 C-14 4.67 -14 4.34 -14 4 C-9.38 3.67 -4.76 3.34 0 3 C0 2.01 0 1.02 0 0 Z " fill="#90413D" transform="translate(144,52)"/>
<path d="M0 0 C1.875 0.1875 1.875 0.1875 4 1 C5.25 3.5625 5.25 3.5625 6 6 C5.34 6.66 4.68 7.32 4 8 C1.27130593 7.96712417 -1.2966618 7.43602229 -4 7 C-3.34 6.401875 -2.68 5.80375 -2 5.1875 C0.3373846 3.12498166 0.3373846 3.12498166 0 0 Z " fill="#BBC75A" transform="translate(205,32)"/>
<path d="M0 0 C0.99 0 1.98 0 3 0 C3 0.66 3 1.32 3 2 C3.99 2.66 4.98 3.32 6 4 C5.34 4.66 4.68 5.32 4 6 C3.67 6.66 3.34 7.32 3 8 C0.03 8 -2.94 8 -6 8 C-4.68 7.67 -3.36 7.34 -2 7 C-1.34 4.69 -0.68 2.38 0 0 Z " fill="#78B44A" transform="translate(220,33)"/>
<path d="M0 0 C-0.99 0.33 -1.98 0.66 -3 1 C-3.33 1.99 -3.66 2.98 -4 4 C-12.16964286 3.33035714 -12.16964286 3.33035714 -15 0 C-9.38963576 -1.62077189 -5.53754923 -2.55579195 0 0 Z " fill="#64A04C" transform="translate(228,30)"/>
<path d="M0 0 C2.475 0.495 2.475 0.495 5 1 C5.33 1.99 5.66 2.98 6 4 C6.66 4.33 7.32 4.66 8 5 C6.6875 7 6.6875 7 5 9 C4.01 9 3.02 9 2 9 C0.875 5.25 0.875 5.25 2 3 C1.34 3 0.68 3 0 3 C0 2.01 0 1.02 0 0 Z " fill="#A0B06E" transform="translate(210,25)"/>
<path d="M0 0 C7.42857143 -0.28571429 7.42857143 -0.28571429 11 2 C10.67 3.65 10.34 5.3 10 7 C9.34 6.01 8.68 5.02 8 4 C6.03638136 3.42251197 6.03638136 3.42251197 3.875 3.3125 C2.59625 3.209375 1.3175 3.10625 0 3 C0 3.66 0 4.32 0 5 C-0.66 5 -1.32 5 -2 5 C-1.34 3.35 -0.68 1.7 0 0 Z " fill="#A72B54" transform="translate(108,7)"/>
<path d="M0 0 C0.61875 0.639375 1.2375 1.27875 1.875 1.9375 C3.82597612 4.03883584 3.82597612 4.03883584 6 5 C6 6.32 6 7.64 6 9 C4.35 9.33 2.7 9.66 1 10 C0.566875 8.576875 0.566875 8.576875 0.125 7.125 C-0.76825109 3.94788422 -0.76825109 3.94788422 -3 2 C-2.01 1.34 -1.02 0.68 0 0 Z " fill="#DA2A3A" transform="translate(136,30)"/>
<path d="M0 0 C2.64 0 5.28 0 8 0 C8.33 0.99 8.66 1.98 9 3 C10.49985609 4.66710346 10.49985609 4.66710346 12 6 C8.16092674 6.21937561 5.40630173 5.84124418 2 4 C0.6875 1.875 0.6875 1.875 0 0 Z " fill="#AA2C5E" transform="translate(88,48)"/>
<path d="M0 0 C1.0828125 0.2165625 1.0828125 0.2165625 2.1875 0.4375 C3.5796875 0.7159375 3.5796875 0.7159375 5 1 C6.66666667 1.33333333 8.33333333 1.66666667 10 2 C10 2.99 10 3.98 10 5 C6.97580475 4.41196203 3.98241547 3.77321882 1 3 C1 4.98 1 6.96 1 9 C0.01 9.495 0.01 9.495 -1 10 C-2.25 3.375 -2.25 3.375 0 0 Z " fill="#671D55" transform="translate(74,17)"/>
<path d="M0 0 C1.65 0.33 3.3 0.66 5 1 C5 2.65 5 4.3 5 6 C3.35 6.33 1.7 6.66 0 7 C-1.125 2.25 -1.125 2.25 0 0 Z " fill="#C5D18C" transform="translate(203,43)"/>
<path d="M0 0 C0 1.32 0 2.64 0 4 C-2.31 4 -4.62 4 -7 4 C-7.33 2.68 -7.66 1.36 -8 0 C-4.71023192 -1.09658936 -3.28696233 -0.79953138 0 0 Z " fill="#D19565" transform="translate(168,35)"/>
<path d="M0 0 C2.33944736 0.28730055 4.6739143 0.61936779 7 1 C5 3 5 3 2.8359375 3.1953125 C1.61777344 3.16050781 1.61777344 3.16050781 0.375 3.125 C-0.44226563 3.10695312 -1.25953125 3.08890625 -2.1015625 3.0703125 C-2.72804688 3.04710937 -3.35453125 3.02390625 -4 3 C-4 3.66 -4 4.32 -4 5 C-7.75 6.125 -7.75 6.125 -10 5 C-10 4.34 -10 3.68 -10 3 C-9.04287109 2.80083984 -9.04287109 2.80083984 -8.06640625 2.59765625 C-7.24011719 2.42105469 -6.41382812 2.24445312 -5.5625 2.0625 C-4.73878906 1.88847656 -3.91507812 1.71445312 -3.06640625 1.53515625 C-1.02338796 1.19247006 -1.02338796 1.19247006 0 0 Z " fill="#7D2D65" transform="translate(81,46)"/>
<path d="M0 0 C0.33 2.31 0.66 4.62 1 7 C-2.13349732 8.04449911 -2.98968256 7.93423645 -6 7 C-5.625 4.0625 -5.625 4.0625 -5 1 C-3 0 -3 0 0 0 Z " fill="#453489" transform="translate(55,35)"/>
<path d="M0 0 C1.98 0 3.96 0 6 0 C7.125 2.25 7.125 2.25 8 5 C7.125 7.3125 7.125 7.3125 6 9 C4.97895449 8.02149805 3.9793879 7.02019573 3 6 C3 5.67 3 5.34 3 5 C2.505 4.525625 2.01 4.05125 1.5 3.5625 C0 2 0 2 0 0 Z " fill="#E8CA94" transform="translate(170,15)"/>
<path d="M0 0 C0.99 0 1.98 0 3 0 C3 2.64 3 5.28 3 8 C1.02 8.99 1.02 8.99 -1 10 C-0.67 9.01 -0.34 8.02 0 7 C0.66 7 1.32 7 2 7 C2 6.34 2 5.68 2 5 C0.02 5.66 -1.96 6.32 -4 7 C-4.33 6.34 -4.66 5.68 -5 5 C-4.01 5 -3.02 5 -2 5 C-2 4.34 -2 3.68 -2 3 C-1.34 2.67 -0.68 2.34 0 2 C0 1.34 0 0.68 0 0 Z " fill="#B66851" transform="translate(153,52)"/>
<path d="M0 0 C0.598125 0.309375 1.19625 0.61875 1.8125 0.9375 C4.08956772 2.10209704 4.08956772 2.10209704 7 3 C6.67 3.99 6.34 4.98 6 6 C4.68 6 3.36 6 2 6 C1.67 6.66 1.34 7.32 1 8 C1 7.34 1 6.68 1 6 C0.34 6 -0.32 6 -1 6 C-1.042721 4.33388095 -1.04063832 2.66617115 -1 1 C-0.67 0.67 -0.34 0.34 0 0 Z " fill="#CA9A55" transform="translate(169,17)"/>
<path d="M0 0 C1.65 0 3.3 0 5 0 C5 3 5 3 3 6 C1.35 5.67 -0.3 5.34 -2 5 C-1.34 3.35 -0.68 1.7 0 0 Z " fill="#E8E091" transform="translate(187,49)"/>
<path d="M0 0 C0 0.33 0 0.66 0 1 C-1.06541016 1.18175781 -1.06541016 1.18175781 -2.15234375 1.3671875 C-3.07144531 1.53476562 -3.99054688 1.70234375 -4.9375 1.875 C-5.85402344 2.03742187 -6.77054688 2.19984375 -7.71484375 2.3671875 C-8.46894531 2.57601562 -9.22304688 2.78484375 -10 3 C-10.33 3.66 -10.66 4.32 -11 5 C-12.32 5 -13.64 5 -15 5 C-15.33 4.01 -15.66 3.02 -16 2 C-11.08785163 -2.23461067 -5.95928917 -0.86623643 0 0 Z " fill="#36214C" transform="translate(68,45)"/>
<path d="M0 0 C6.14154225 0.58490879 12.00679849 1.54066252 18 3 C18 3.33 18 3.66 18 4 C11.4294834 4.24794402 5.43028541 3.32388229 -1 2 C-0.67 1.34 -0.34 0.68 0 0 Z " fill="#4F0540" transform="translate(71,51)"/>
<path d="M0 0 C0.33 0.99 0.66 1.98 1 3 C1.99 3 2.98 3 4 3 C4.33 4.65 4.66 6.3 5 8 C2.03 10.475 2.03 10.475 -1 13 C-1.33 11.68 -1.66 10.36 -2 9 C-1.01 9 -0.02 9 1 9 C0.47731534 6.23723823 -0.10869587 3.6739124 -1 1 C-0.67 0.67 -0.34 0.34 0 0 Z " fill="#C82559" transform="translate(116,11)"/>
<path d="M0 0 C3.625 0.375 3.625 0.375 7 1 C7 1.66 7 2.32 7 3 C8.32 2.67 9.64 2.34 11 2 C11 3.65 11 5.3 11 7 C6.125 4.125 6.125 4.125 5 3 C2.67182036 2.63239269 0.3381615 2.29758419 -2 2 C-1.34 1.34 -0.68 0.68 0 0 Z " fill="#257340" transform="translate(229,52)"/>
<path d="M0 0 C0.66 0 1.32 0 2 0 C2 0.99 2 1.98 2 3 C3.32 3.33 4.64 3.66 6 4 C6 5.98 6 7.96 6 10 C4.68 10.33 3.36 10.66 2 11 C2.226875 10.278125 2.45375 9.55625 2.6875 8.8125 C3.08504859 5.2345627 2.00969645 3.89396289 0 1 C0 0.67 0 0.34 0 0 Z " fill="#9B4247" transform="translate(141,34)"/>
<path d="M0 0 C3.056154 0.60718291 5.15761676 1.56402068 7.6875 3.375 C8.28949219 3.79523437 8.89148438 4.21546875 9.51171875 4.6484375 C11 6 11 6 12 9 C11.01 9.495 11.01 9.495 10 10 C9.566875 9.54625 9.13375 9.0925 8.6875 8.625 C6.89201658 6.79975666 6.89201658 6.79975666 4 5 C4 4.34 4 3.68 4 3 C2.68 2.34 1.36 1.68 0 1 C0 0.67 0 0.34 0 0 Z " fill="#1E6793" transform="translate(10,12)"/>
<path d="M0 0 C-0.66 2.31 -1.32 4.62 -2 7 C-2.99 6.67 -3.98 6.34 -5 6 C-5 5.34 -5 4.68 -5 4 C-5.66 3.01 -6.32 2.02 -7 1 C-4.53721199 -0.231394 -2.7204945 -0.07159196 0 0 Z " fill="#8ABA4C" transform="translate(220,33)"/>
<path d="M0 0 C6.93 0.495 6.93 0.495 14 1 C14.33 1.99 14.66 2.98 15 4 C9.72684667 3.5547115 4.98229776 2.91626837 0 1 C0 0.67 0 0.34 0 0 Z " fill="#287D39" transform="translate(223,30)"/>
<path d="M0 0 C1.98 0.66 3.96 1.32 6 2 C6 2.66 6 3.32 6 4 C6.66 4 7.32 4 8 4 C8 4.66 8 5.32 8 6 C7.01 6.33 6.02 6.66 5 7 C5 6.34 5 5.68 5 5 C4.34 4.67 3.68 4.34 3 4 C2.67 4.33 2.34 4.66 2 5 C1.67 4.34 1.34 3.68 1 3 C0.01 2.67 -0.98 2.34 -2 2 C-1.34 1.34 -0.68 0.68 0 0 Z " fill="#0A1E4E" transform="translate(37,18)"/>
<path d="M0 0 C-1 2 -1 2 -3.75 3.125 C-6.70186896 3.91973395 -8.97219837 4.17810598 -12 4 C-11.67 3.01 -11.34 2.02 -11 1 C-7.27569643 0.30710631 -3.78916254 -0.11144596 0 0 Z " fill="#8E1C59" transform="translate(96,18)"/>
<path d="M0 0 C4.39158329 1.4638611 4.87947433 3.97831338 7 8 C5.68 8.33 4.36 8.66 3 9 C2.71125 8.195625 2.4225 7.39125 2.125 6.5625 C1.26737432 3.8673532 1.26737432 3.8673532 -1 3 C-0.67 2.01 -0.34 1.02 0 0 Z " fill="#E81E70" transform="translate(110,12)"/>
<path d="M0 0 C0.99 0.33 1.98 0.66 3 1 C3 2.32 3 3.64 3 5 C2.34 5 1.68 5 1 5 C0.67 5.66 0.34 6.32 0 7 C-0.99 6.34 -1.98 5.68 -3 5 C-2.01 3.35 -1.02 1.7 0 0 Z " fill="#E1216A" transform="translate(112,22)"/>
<path d="M0 0 C2.35981813 0.93578995 4.69631264 1.93347808 7 3 C6.67 4.32 6.34 5.64 6 7 C6 6.34 6 5.68 6 5 C3.50935112 4.31292445 1.62113708 4 -1 4 C-1.66 4 -2.32 4 -3 4 C-2.67 3.01 -2.34 2.02 -2 1 C-1.34 0.67 -0.68 0.34 0 0 Z " fill="#15557D" transform="translate(21,21)"/>
<path d="M0 0 C2.31 0.33 4.62 0.66 7 1 C7.33 1.99 7.66 2.98 8 4 C5.69 4 3.38 4 1 4 C0.67 2.68 0.34 1.36 0 0 Z " fill="#B89D73" transform="translate(165,50)"/>
<path d="M0 0 C3.67420866 0.30618405 4.78135513 0.75771784 7.3125 3.5625 C8.1478125 4.7690625 8.1478125 4.7690625 9 6 C7.68 6 6.36 6 5 6 C4.67 5.34 4.34 4.68 4 4 C2.35636866 3.27840576 0.68949614 2.60648579 -1 2 C-0.67 1.34 -0.34 0.68 0 0 Z " fill="#5B9744" transform="translate(219,41)"/>
<path d="M0 0 C0.99 0.33 1.98 0.66 3 1 C2.67 1.66 2.34 2.32 2 3 C2.99 3.33 3.98 3.66 5 4 C4.01 4.495 4.01 4.495 3 5 C2.34 4.67 1.68 4.34 1 4 C1.33 4.99 1.66 5.98 2 7 C1.01 7.33 0.02 7.66 -1 8 C-1.04241723 5.66705225 -1.04092937 3.33297433 -1 1 C-0.67 0.67 -0.34 0.34 0 0 Z " fill="#BA2642" transform="translate(131,34)"/>
<path d="M0 0 C0.99 0 1.98 0 3 0 C3 0.99 3 1.98 3 3 C3.99 3.33 4.98 3.66 6 4 C5.67 4.99 5.34 5.98 5 7 C2.5 5.75 2.5 5.75 0 4 C0 2.68 0 1.36 0 0 Z M0 6 C2 7 2 7 2 7 Z " fill="#37317C" transform="translate(48,30)"/>
<path d="M0 0 C1.65 0 3.3 0 5 0 C5.37125 1.2065625 5.37125 1.2065625 5.75 2.4375 C6.72238859 5.171081 6.72238859 5.171081 9.125 5.8125 C10.053125 5.9053125 10.053125 5.9053125 11 6 C9.02 6.33 7.04 6.66 5 7 C4.67 5.02 4.34 3.04 4 1 C2.68 0.67 1.36 0.34 0 0 Z " fill="#6E1F59" transform="translate(73,29)"/>
<path d="M0 0 C0.721875 0.309375 1.44375 0.61875 2.1875 0.9375 C4.80307309 1.92560539 7.25118982 2.5287754 10 3 C9.01 3.99 8.02 4.98 7 6 C1.125 2.25 1.125 2.25 0 0 Z " fill="#0979B8" transform="translate(13,12)"/>
<path d="M0 0 C1.22589844 0.29197266 1.22589844 0.29197266 2.4765625 0.58984375 C3.41628906 0.82380859 3.41628906 0.82380859 4.375 1.0625 C4.045 1.7225 3.715 2.3825 3.375 3.0625 C1.8949159 2.94887738 0.41589926 2.82127092 -1.0625 2.6875 C-1.88621094 2.61789063 -2.70992187 2.54828125 -3.55859375 2.4765625 C-4.24050781 2.33992188 -4.92242187 2.20328125 -5.625 2.0625 C-5.955 1.4025 -6.285 0.7425 -6.625 0.0625 C-3.99249612 -1.25375194 -2.82320944 -0.68563658 0 0 Z " fill="#3B0E49" transform="translate(64.625,49.9375)"/>
<path d="M0 0 C1.60379341 -0.05416188 3.20811406 -0.09286638 4.8125 -0.125 C5.70582031 -0.14820313 6.59914062 -0.17140625 7.51953125 -0.1953125 C10 0 10 0 13 2 C9.37 2.33 5.74 2.66 2 3 C1.34 2.01 0.68 1.02 0 0 Z " fill="#F2CD7D" transform="translate(172,36)"/>
<path d="M0 0 C1.98 0 3.96 0 6 0 C6 3.63 6 7.26 6 11 C5.67 11 5.34 11 5 11 C5 8.69 5 6.38 5 4 C4.34 4 3.68 4 3 4 C3 3.34 3 2.68 3 2 C2.01 1.34 1.02 0.68 0 0 Z " fill="#269E5E" transform="translate(234,32)"/>
<path d="M0 0 C1.65 0 3.3 0 5 0 C5 1.32 5 2.64 5 4 C3.35 3.67 1.7 3.34 0 3 C0 2.01 0 1.02 0 0 Z " fill="#3F2045" transform="translate(64,33)"/>
<path d="M0 0 C2.375 0.3125 2.375 0.3125 5 1 C7 4 7 4 7 7 C7.66 7.33 8.32 7.66 9 8 C8.01 8 7.02 8 6 8 C5.34 6.35 4.68 4.7 4 3 C2.68 3 1.36 3 0 3 C0 2.01 0 1.02 0 0 Z " fill="#902D77" transform="translate(74,26)"/>
<path d="M0 0 C1.65 0 3.3 0 5 0 C3.71502463 2.56995074 2.50087627 2.90434463 -0.0625 4.125 C-0.79597656 4.47820313 -1.52945313 4.83140625 -2.28515625 5.1953125 C-2.85105469 5.46085937 -3.41695313 5.72640625 -4 6 C-4.33 5.01 -4.66 4.02 -5 3 C-4.360625 2.87625 -3.72125 2.7525 -3.0625 2.625 C-2.0415625 2.315625 -2.0415625 2.315625 -1 2 C-0.67 1.34 -0.34 0.68 0 0 Z " fill="#AC368B" transform="translate(80,22)"/>
<path d="M0 0 C1.258125 -0.04125 2.51625 -0.0825 3.8125 -0.125 C4.52019531 -0.14820313 5.22789063 -0.17140625 5.95703125 -0.1953125 C8 0 8 0 11 2 C7.18243176 3.37432457 3.92744671 2.67975039 0 2 C0 1.34 0 0.68 0 0 Z " fill="#713385" transform="translate(59,48)"/>
<path d="M0 0 C2.97 0.99 5.94 1.98 9 3 C8.67 3.66 8.34 4.32 8 5 C5 5 5 5 3 4 C3 3.34 3 2.68 3 2 C2.01 1.67 1.02 1.34 0 1 C0 0.67 0 0.34 0 0 Z " fill="#09083A" transform="translate(43,41)"/>
<path d="M0 0 C0.33 0.66 0.66 1.32 1 2 C3.02463255 2.65213292 3.02463255 2.65213292 5 3 C5 4.32 5 5.64 5 7 C2.37812506 5.95125002 1.20628639 5.35068687 -0.25 2.875 C-0.4975 2.25625 -0.745 1.6375 -1 1 C-0.67 0.67 -0.34 0.34 0 0 Z " fill="#234B70" transform="translate(17,25)"/>
<path d="M0 0 C1.32 0 2.64 0 4 0 C4 0.66 4 1.32 4 2 C4.66 2 5.32 2 6 2 C6 2.66 6 3.32 6 4 C4.02 4 2.04 4 0 4 C0 2.68 0 1.36 0 0 Z " fill="#026BB5" transform="translate(23,19)"/>
<path d="M0 0 C1.46080933 0.61919078 2.91857455 1.24556692 4.375 1.875 C5.18710937 2.22304687 5.99921875 2.57109375 6.8359375 2.9296875 C9 4 9 4 11 6 C6.87248551 5.39301257 3.6678852 3.96189209 0 2 C0 1.34 0 0.68 0 0 Z " fill="#105784" transform="translate(16,8)"/>
<path d="M0 0 C3 1 3 1 5 4 C3.02 4 1.04 4 -1 4 C-1.33 3.01 -1.66 2.02 -2 1 C-1.34 0.67 -0.68 0.34 0 0 Z " fill="#44663D" transform="translate(222,51)"/>
<path d="M0 0 C0.33 1.32 0.66 2.64 1 4 C0.34 4 -0.32 4 -1 4 C-1.33 4.66 -1.66 5.32 -2 6 C-4.0625 6.625 -4.0625 6.625 -6 7 C-2.25 1.125 -2.25 1.125 0 0 Z " fill="#C1235D" transform="translate(111,31)"/>
<path d="M0 0 C8.57142857 -0.28571429 8.57142857 -0.28571429 12 2 C7.48281619 3.36884358 4.41225737 2.47075246 0 1 C0 0.67 0 0.34 0 0 Z " fill="#BF2077" transform="translate(84,33)"/>
<path d="M0 0 C1.98 0.66 3.96 1.32 6 2 C5.67 2.66 5.34 3.32 5 4 C3.35 4 1.7 4 0 4 C-0.33 3.01 -0.66 2.02 -1 1 C-0.67 0.67 -0.34 0.34 0 0 Z " fill="#CA605F" transform="translate(144,25)"/>
<path d="M0 0 C1.65 0.33 3.3 0.66 5 1 C4.67 1.99 4.34 2.98 4 4 C2.35 3.67 0.7 3.34 -1 3 C-0.67 2.01 -0.34 1.02 0 0 Z " fill="#AE2044" transform="translate(119,19)"/>
<path d="M0 0 C1.875 0.1875 1.875 0.1875 4 1 C5.25 3.5625 5.25 3.5625 6 6 C5.01 6 4.02 6 3 6 C2.01 4.02 1.02 2.04 0 0 Z " fill="#E31E63" transform="translate(112,12)"/>
<path d="M0 0 C1.32 0.33 2.64 0.66 4 1 C4 1.99 4 2.98 4 4 C5.32 4.33 6.64 4.66 8 5 C4.28400809 5.20086443 3.22791555 5.1519437 0 3 C0 2.01 0 1.02 0 0 Z " fill="#932B4C" transform="translate(108,53)"/>
<path d="M0 0 C3.3 0 6.6 0 10 0 C9.67 0.66 9.34 1.32 9 2 C5.44307323 2.85056945 3.50729422 3.16909807 0 2 C0 1.34 0 0.68 0 0 Z " fill="#E6E051" transform="translate(193,32)"/>
<path d="M0 0 C0.99 0 1.98 0 3 0 C3 1.98 3 3.96 3 6 C2.01 6 1.02 6 0 6 C-1.125 2.25 -1.125 2.25 0 0 Z " fill="#E2B88E" transform="translate(167,23)"/>
<path d="M0 0 C0.66 0.33 1.32 0.66 2 1 C2 2.32 2 3.64 2 5 C0.35 4.67 -1.3 4.34 -3 4 C-3 3.01 -3 2.02 -3 1 C-2.01 0.67 -1.02 0.34 0 0 Z " fill="#B84651" transform="translate(125,56)"/>
<path d="M0 0 C2.9375 0.375 2.9375 0.375 6 1 C6.33 1.66 6.66 2.32 7 3 C5.1875 3.625 5.1875 3.625 3 4 C2.01 3.34 1.02 2.68 0 2 C0 1.34 0 0.68 0 0 Z " fill="#BA287C" transform="translate(84,50)"/>
<path d="M0 0 C2.97 0.33 5.94 0.66 9 1 C9 1.66 9 2.32 9 3 C6.1875 3.1875 6.1875 3.1875 3 3 C2.01 2.01 1.02 1.02 0 0 Z " fill="#6F9B3E" transform="translate(213,30)"/>
<path d="M0 0 C1.65 0.33 3.3 0.66 5 1 C4.01 2.485 4.01 2.485 3 4 C1.68 3.67 0.36 3.34 -1 3 C-0.67 2.01 -0.34 1.02 0 0 Z " fill="#B57461" transform="translate(153,29)"/>
<path d="M0 0 C0.66 0.33 1.32 0.66 2 1 C1.67 2.32 1.34 3.64 1 5 C0.01 5 -0.98 5 -2 5 C-1.125 1.125 -1.125 1.125 0 0 Z " fill="#D3D696" transform="translate(197,42)"/>
<path d="M0 0 C0 0.99 0 1.98 0 3 C-1.65 3.33 -3.3 3.66 -5 4 C-5 3.01 -5 2.02 -5 1 C-3 0 -3 0 0 0 Z " fill="#903E4D" transform="translate(131,4)"/>
<path d="M0 0 C1.32 0.66 2.64 1.32 4 2 C4 2.66 4 3.32 4 4 C2.68 3.67 1.36 3.34 0 3 C0 2.01 0 1.02 0 0 Z " fill="#244A5D" transform="translate(11,18)"/>
<path d="M0 0 C2.475 0.495 2.475 0.495 5 1 C5 1.99 5 2.98 5 4 C3.0625 3.6875 3.0625 3.6875 1 3 C0.67 2.01 0.34 1.02 0 0 Z " fill="#7E4751" transform="translate(132,0)"/>
<path d="M0 0 C1.65 0 3.3 0 5 0 C4.67 0.99 4.34 1.98 4 3 C2.68 2.67 1.36 2.34 0 2 C0 1.34 0 0.68 0 0 Z " fill="#B7B48C" transform="translate(178,52)"/>
<path d="M0 0 C1.32 0.33 2.64 0.66 4 1 C4 1.99 4 2.98 4 4 C2.68 3.34 1.36 2.68 0 2 C0 1.34 0 0.68 0 0 Z " fill="#2C4764" transform="translate(25,33)"/>
<path d="M0 0 C0.66 1.32 1.32 2.64 2 4 C1.01 4.33 0.02 4.66 -1 5 C-0.67 3.35 -0.34 1.7 0 0 Z " fill="#A66150" transform="translate(165,6)"/>
<path d="M0 0 C0 0.99 0 1.98 0 3 C-1.65 2.67 -3.3 2.34 -5 2 C-2 0 -2 0 0 0 Z " fill="#101421" transform="translate(51,19)"/>
<path d="M0 0 C0.99 0 1.98 0 3 0 C3 0.99 3 1.98 3 3 C2.01 2.67 1.02 2.34 0 2 C0 1.34 0 0.68 0 0 Z " fill="#713A4F" transform="translate(103,48)"/>
<path d="M0 0 C0.99 0 1.98 0 3 0 C3 0.99 3 1.98 3 3 C2.01 2.67 1.02 2.34 0 2 C0 1.34 0 0.68 0 0 Z " fill="#18111C" transform="translate(67,8)"/>
<path d="M0 0 C0.99 0 1.98 0 3 0 C3 0.99 3 1.98 3 3 C2.34 3 1.68 3 1 3 C0.67 2.01 0.34 1.02 0 0 Z " fill="#1B181D" transform="translate(54,12)"/>
<path d="M0 0 C0.66 0 1.32 0 2 0 C2 0.99 2 1.98 2 3 C1.01 2.67 0.02 2.34 -1 2 C-0.67 1.34 -0.34 0.68 0 0 Z " fill="#325B5F" transform="translate(3,13)"/>
<path d="M0 0 C0.33 0.99 0.66 1.98 1 3 C0.01 2.67 -0.98 2.34 -2 2 C-1.34 1.34 -0.68 0.68 0 0 Z " fill="#9C585A" transform="translate(138,61)"/>
<path d="M0 0 C0.33 0.99 0.66 1.98 1 3 C0.34 3 -0.32 3 -1 3 C-0.67 2.01 -0.34 1.02 0 0 Z " fill="#D8D0AA" transform="translate(179,23)"/>
<path d="M0 0 C0 3 0 3 0 3 Z " fill="#613E3D" transform="translate(159,10)"/>
<path d="M0 0 C3 1 3 1 3 1 Z " fill="#111220" transform="translate(36,43)"/>
<path d="M0 0 C0.66 0.66 1.32 1.32 2 2 C1.34 2 0.68 2 0 2 C0 1.34 0 0.68 0 0 Z " fill="#1E344E" transform="translate(23,31)"/>
<path d="" fill="#1D1D22" transform="translate(0,0)"/>
<path d="" fill="#110715" transform="translate(0,0)"/>
<path d="" fill="#000000" transform="translate(0,0)"/>
<path d="" fill="#604040" transform="translate(0,0)"/>
<path d="" fill="#000000" transform="translate(0,0)"/>
</svg>
